<svg xmlns="http://www.w3.org/2000/svg" width="340" height="96" viewBox="0 0 340 96" role="img" aria-label="riusdegent — Dades per entendre com s&#39;habita el territori">
  <title>riusdegent — logotip principal (clar)</title>
  <desc>Logotip horitzontal: marca hidrogràfica + wordmark &#34;riusdegent&#34; en Inter + tagline. Versió principal sobre fons clar. Colors dels tokens datapoble.</desc>

  
  <g transform="translate(0,4)">
    <line x1="48" y1="14" x2="48" y2="74" stroke="#C75D34" stroke-width="2.5" stroke-linecap="round"></line>
    
    <g fill="none" stroke="#2F6B4F" stroke-linecap="round">
      <path d="M12 30 C 23 25, 35 25, 46 30" stroke-width="4"></path>
      <path d="M10 41 C 23 35, 35 35, 46 40" stroke-width="5.5"></path>
      <path d="M10 53 C 23 47, 35 47, 46 52" stroke-width="5.5"></path>
      <path d="M12 64 C 23 59, 35 59, 46 64" stroke-width="4"></path>
    </g>
    
    <g fill="none" stroke="#2F6B4F" stroke-linecap="round">
      <path d="M50 30 C 60 25, 69 25, 77 29" stroke-width="2.75"></path>
      <path d="M50 40 C 61 35, 71 36, 82 33" stroke-width="3.25"></path>
    </g>
    <g fill="none" stroke="#2F6B4F" stroke-linecap="round" stroke-width="2.75" stroke-dasharray="0.1 7">
      <path d="M50 52 C 61 47, 71 48, 84 45"></path>
      <path d="M50 64 C 60 59, 68 60, 78 58"></path>
    </g>
  </g>

  
  <text x="104" y="50" font-family="&#39;Inter&#39;,&#39;Source Sans 3&#39;,system-ui,-apple-system,&#39;Segoe UI&#39;,Roboto,sans-serif" font-size="34" font-weight="600" letter-spacing="-0.34" dominant-baseline="alphabetic">
    <tspan fill="#1B212A">rius</tspan><tspan fill="#255741">degent</tspan>
  </text>

  
  <text x="105" y="72" font-family="&#39;Inter&#39;,&#39;Source Sans 3&#39;,system-ui,-apple-system,&#39;Segoe UI&#39;,Roboto,sans-serif" font-size="11.5" font-weight="400" letter-spacing="0.1" fill="#515E6E">Dades per entendre com s&#39;habita el territori</text>
</svg>